<?xml version="1.0" encoding="UTF-8"?> <svg xmlns="http://www.w3.org/2000/svg" xmlns:xlink="http://www.w3.org/1999/xlink" version="1.1" id="Layer_1" x="0px" y="0px" viewBox="0 0 99.1 36.2" style="enable-background:new 0 0 99.1 36.2;" xml:space="preserve"> <style type="text/css"> .st0{fill:#FF6666;} .st1{fill:#FFFFFF;} </style> <title>Asset 9</title> <g> <path class="st0" d="M7.3,4.1v2.5h7.6v3.7H7.3v2.5h8.6v3.7H2.6v-16h13.1v3.7H7.3z"></path> <path class="st0" d="M22.9,16.5l-6.1-16h5.1l3.7,11.1l3.7-11.1H34l-6.2,16H22.9z"></path> <path class="st0" d="M40,4.1v2.5h7.6v3.7H40v2.5h8.6v3.7H35.3v-16h13.1v3.7H40z"></path> <path class="st0" d="M62,16.5l-6.8-8.9v8.9h-4.4v-16h4.1l6.8,8.9V0.5H66v16H62z"></path> <path class="st0" d="M76.9,4.2v12.2h-4.8V4.2h-4.6V0.5h14.1v3.8H76.9z"></path> <path class="st0" d="M96.3,2.1l-1.8,3.7c-1.6-0.9-4-1.8-5.3-1.8c-0.8,0-1.3,0.3-1.3,0.9c0,2.4,8.4,1,8.4,6.7c0,3.4-3,5-6.6,5 c-2.7,0-5.7-1-7.7-2.5l1.8-3.6c1.6,1.4,4.3,2.4,6,2.4c1,0,1.6-0.3,1.6-1.1c0-2.4-8.4-0.9-8.4-6.5c0-3.1,2.6-5,6.6-5 C92.1,0.3,94.6,1,96.3,2.1z"></path> </g> <g> <g> <g> <path class="st1" d="M59.5,28.6c0-0.7,0.5-1.1,1.1-1.1c0.6,0,1,0.4,1.1,1.1c0,0.7-0.4,1.1-1.1,1.1C60,29.7,59.5,29.3,59.5,28.6z"></path> <path class="st1" d="M66.3,29.5c-0.3,0.1-0.8,0.2-1.3,0.2c-1.7,0-2.7-1-2.7-2.7c0-1.6,1-2.8,2.9-2.8c0.4,0,0.8,0.1,1.1,0.2 L66,25.8c-0.2-0.1-0.4-0.1-0.7-0.1c-0.7,0-1.2,0.5-1.2,1.3c0,0.9,0.5,1.3,1.2,1.3c0.3,0,0.5,0,0.7-0.1L66.3,29.5z"></path> <path class="st1" d="M72,26.9c0,2-1.4,2.8-2.6,2.8c-1.5,0-2.6-1-2.6-2.7c0-1.7,1.1-2.8,2.7-2.8C71,24.2,72,25.3,72,26.9z M68.6,27c0,0.8,0.2,1.4,0.8,1.4c0.5,0,0.7-0.6,0.7-1.4c0-0.7-0.2-1.4-0.7-1.4C68.8,25.6,68.6,26.3,68.6,27z"></path> <path class="st1" d="M72.9,26.1c0-0.7,0-1.3,0-1.8h1.6l0.1,0.6h0c0.2-0.3,0.7-0.8,1.5-0.8c0.7,0,1.1,0.3,1.4,0.8h0 c0.2-0.2,0.4-0.5,0.7-0.6c0.3-0.1,0.6-0.2,0.9-0.2c1.1,0,1.7,0.8,1.7,2.2v3.2h-1.8v-2.9c0-0.6-0.1-1-0.6-1 c-0.3,0-0.5,0.2-0.5,0.4c0,0.1,0,0.3,0,0.4v3.1h-1.8v-3c0-0.5-0.1-0.9-0.5-0.9c-0.3,0-0.5,0.2-0.5,0.4c0,0.1-0.1,0.3-0.1,0.4v3.1 h-1.8V26.1z"></path> <path class="st1" d="M81.7,28.6c0-0.7,0.5-1.1,1.1-1.1c0.6,0,1,0.4,1.1,1.1c0,0.7-0.4,1.1-1.1,1.1C82.1,29.7,81.7,29.3,81.7,28.6 z"></path> <path class="st1" d="M87.5,29.6l-0.1-0.5h0c-0.4,0.4-0.8,0.6-1.4,0.6c-1,0-1.7-0.8-1.7-1.7c0-1.4,1.3-2,2.9-2V26 c0-0.2-0.2-0.5-0.8-0.5c-0.5,0-1,0.2-1.4,0.4l-0.3-1.2c0.3-0.2,1.1-0.5,2.1-0.5c1.8,0,2.3,1.1,2.3,2.3v1.8c0,0.5,0,1,0.1,1.3 H87.5z M87.3,27.2c-0.7,0-1.2,0.2-1.2,0.7c0,0.4,0.2,0.5,0.5,0.5c0.2,0,0.5-0.2,0.6-0.4c0-0.1,0-0.2,0-0.3V27.2z"></path> <path class="st1" d="M95.1,27.9c0,0.7,0,1.3,0,1.8h-1.6L93.5,29h0c-0.2,0.3-0.7,0.8-1.5,0.8c-1.1,0-1.8-0.8-1.8-2.3v-3.1h1.9v2.9 c0,0.7,0.2,1,0.6,1c0.3,0,0.5-0.2,0.5-0.4c0-0.1,0.1-0.2,0.1-0.3v-3.2h1.9V27.9z"></path> </g> </g> </g> <polygon class="st1" points="47,18.9 45.4,21.4 48.4,25.4 53.1,18.9 "></polygon> <polygon class="st1" points="62.2,18.9 56.1,18.9 50,27.5 56.1,35.6 62.2,35.6 56.3,27.8 "></polygon> <g> <g> <path class="st0" d="M10.9,19.1c3.8,0,6.3,1.6,6.3,4.1c0,1.7-1.1,3-2.8,3.5c2,0.4,3.3,2.1,3.3,4.1c0,2.8-2.5,4.6-6.5,4.6H2.9V19.1 H10.9z M7.7,25.5h3c1,0,1.6-0.6,1.6-1.4c0-0.8-0.6-1.4-1.6-1.4h-3V25.5z M7.7,31.8h3c1.2,0,2-0.6,2-1.6c0-0.9-0.8-1.5-2-1.5h-3 V31.8z"></path> <path class="st0" d="M36.2,27.2c0,4.8-3.8,8.4-8.9,8.4c-5.2,0-8.9-3.6-8.9-8.4c0-4.8,3.8-8.3,8.9-8.3 C32.4,18.9,36.2,22.4,36.2,27.2z M23.3,27.2c0,2.5,1.9,4.3,4,4.3s3.9-1.9,3.9-4.3c0-2.5-1.7-4.3-3.9-4.3 C25.1,23,23.3,24.8,23.3,27.2z"></path> <polygon class="st0" points="35,18.9 41.2,27.3 35,35.6 41.2,35.6 44.1,31.6 47.2,35.6 53.2,35.6 40.8,18.9 "></polygon> <polygon class="st0" points="35,35.6 47,18.9 53.1,18.9 41.2,35.6 "></polygon> </g> </g> </svg> 